<?xml version="1.0" standalone="no"?>
<!DOCTYPE svg PUBLIC "-//W3C//DTD SVG 20010904//EN"
 "http://www.w3.org/TR/2001/REC-SVG-20010904/DTD/svg10.dtd">
<svg version="1.0" xmlns="http://www.w3.org/2000/svg"
 width="300.000000pt" height="300.000000pt" viewBox="0 0 300.000000 300.000000"
 preserveAspectRatio="xMidYMid meet">
<metadata>
Created by potrace 1.15, written by Peter Selinger 2001-2017
</metadata>
<g transform="translate(0.000000,300.000000) scale(0.100000,-0.100000)"
fill="#000000" stroke="none">
<path d="M1370 2819 c-405 -44 -796 -300 -1004 -658 -213 -366 -233 -843 -51
-1216 69 -143 227 -355 264 -355 8 0 52 37 98 82 l81 81 16 -36 c27 -66 107
-181 169 -245 123 -127 267 -208 456 -257 93 -25 115 -27 200 -21 318 22 622
166 854 405 300 309 425 708 357 1137 -36 225 -154 468 -308 634 l-60 65 -84
-82 c-46 -46 -87 -83 -91 -83 -3 0 -19 24 -33 53 -75 148 -214 298 -352 381
-163 97 -329 134 -512 115z m928 -651 c54 -163 66 -252 66 -463 0 -164 -3
-201 -22 -270 -28 -103 -96 -243 -156 -322 -144 -190 -383 -303 -576 -272
-121 19 -310 162 -381 288 -12 22 -27 41 -32 41 -5 0 -7 7 -3 15 3 8 1 15 -4
15 -6 0 -10 -6 -10 -13 0 -12 -409 -427 -422 -427 -10 0 -57 152 -74 240 -25
126 -35 314 -24 432 32 342 218 613 483 705 83 29 199 40 278 25 114 -22 289
-159 363 -286 38 -65 52 -82 39 -49 -4 9 -2 14 3 10 6 -3 105 90 220 207 115
117 212 214 215 215 4 0 20 -41 37 -91z"/>
</g>
</svg>
