<?xml version="1.0" standalone="no"?>
<!DOCTYPE svg PUBLIC "-//W3C//DTD SVG 20010904//EN"
 "http://www.w3.org/TR/2001/REC-SVG-20010904/DTD/svg10.dtd">
<svg version="1.0" xmlns="http://www.w3.org/2000/svg"
 width="300.000000pt" height="300.000000pt" viewBox="0 0 300.000000 300.000000"
 preserveAspectRatio="xMidYMid meet">
<metadata>
Created by potrace 1.15, written by Peter Selinger 2001-2017
</metadata>
<g transform="translate(0.000000,300.000000) scale(0.100000,-0.100000)"
fill="#000000" stroke="none">
<path d="M1250 2862 c-102 -60 -263 -153 -359 -208 -602 -343 -645 -369 -668
-403 l-23 -34 0 -715 0 -716 22 -32 c28 -40 397 -259 439 -259 15 -1 25 4 23
10 -3 9 99 65 119 65 4 0 16 9 27 20 11 11 27 20 35 20 8 0 15 3 15 8 0 4 16
15 35 25 19 9 51 25 70 34 19 10 35 21 35 26 0 4 13 13 30 18 16 6 30 15 30
20 0 5 6 9 13 9 18 0 67 24 67 33 0 4 8 7 18 7 12 0 25 -14 37 -40 10 -22 20
-39 21 -37 2 2 -27 82 -65 178 l-68 174 -202 136 c-229 154 -240 163 -190 149
42 -12 42 -12 33 2 -5 8 -2 9 12 4 10 -4 16 -4 12 -1 -3 4 1 15 10 25 12 15
19 17 29 8 11 -9 12 -7 7 8 -4 10 -4 16 1 12 4 -4 15 -2 23 5 13 10 14 9 7 -2
-5 -10 -4 -12 3 -7 7 4 12 14 12 22 0 8 5 14 12 14 6 0 20 8 31 18 19 16 20
16 14 -1 -4 -10 -3 -16 3 -12 5 3 16 -7 24 -22 8 -15 15 -24 16 -20 0 5 -74
195 -165 423 -91 228 -165 417 -165 419 0 3 106 4 235 3 l236 -3 127 -337 c69
-185 128 -335 130 -333 2 2 -4 24 -13 49 -13 34 -15 49 -6 59 6 8 9 16 6 19
-3 3 1 11 10 18 12 10 18 10 32 -1 11 -10 14 -10 9 -1 -4 7 -2 12 4 12 6 0 8
6 4 13 -4 6 -3 9 1 4 5 -4 20 3 33 15 14 13 21 16 17 8 -8 -13 -7 -13 10 0 11
8 27 22 35 31 17 19 78 41 90 34 5 -3 12 0 16 6 5 8 2 10 -7 5 -8 -4 -6 -1 3
7 10 8 17 16 15 18 -1 2 3 -1 9 -8 8 -9 13 -7 22 7 6 11 18 17 26 14 8 -3 17
0 22 7 4 8 3 10 -4 5 -7 -4 -12 -2 -12 3 0 6 7 11 16 11 8 0 12 5 9 10 -3 6 3
10 15 10 13 0 19 -4 14 -12 -4 -7 -3 -8 4 -4 7 4 12 14 12 21 0 9 6 12 17 8
10 -4 14 -2 10 4 -8 12 22 27 32 17 3 -4 0 -9 -7 -11 -6 -3 -10 -8 -7 -13 3
-4 -2 -24 -10 -44 -8 -19 -15 -41 -15 -48 1 -17 20 28 92 217 34 88 66 166 71
173 7 9 66 12 233 12 123 0 224 -3 224 -7 0 -4 -23 -63 -51 -131 -28 -68 -50
-125 -48 -126 2 -2 100 -62 216 -134 l213 -130 37 13 38 13 3 234 2 233 -30
37 c-17 21 -76 63 -138 99 -236 136 -439 253 -472 272 -19 10 -162 93 -317
183 l-281 164 -64 0 c-62 0 -66 -2 -248 -108z"/>
</g>
</svg>
