<?xml version="1.0" standalone="no"?>
<!DOCTYPE svg PUBLIC "-//W3C//DTD SVG 20010904//EN"
 "http://www.w3.org/TR/2001/REC-SVG-20010904/DTD/svg10.dtd">
<svg version="1.0" xmlns="http://www.w3.org/2000/svg"
 width="221.000000pt" height="200.000000pt" viewBox="0 0 221.000000 200.000000"
 preserveAspectRatio="xMidYMid meet">
<metadata>
Created by potrace 1.15, written by Peter Selinger 2001-2017
</metadata>
<g transform="translate(0.000000,200.000000) scale(0.100000,-0.100000)"
fill="#000000" stroke="none">
<path d="M0 1991 c0 -5 83 -137 185 -293 l185 -283 0 -187 0 -188 120 0 120 0
0 183 0 182 190 292 c105 160 190 294 190 297 0 3 -58 6 -130 6 l-130 0 -66
-102 c-36 -57 -89 -140 -117 -184 l-52 -81 -116 181 -116 181 -132 3 c-77 1
-131 -1 -131 -7z"/>
<path d="M880 1535 c-107 -256 -197 -471 -198 -476 -3 -6 35 -9 98 -7 l102 3
45 103 45 102 202 0 201 0 42 -102 41 -103 107 -3 c98 -2 106 -1 101 15 -3 10
-91 223 -194 473 l-187 455 -105 3 -105 3 -195 -466z m364 86 c31 -84 56 -155
56 -157 0 -2 -54 -4 -120 -4 -66 0 -120 2 -120 4 0 11 122 317 125 314 2 -2
29 -72 59 -157z"/>
<path d="M1460 480 l0 -470 350 0 350 0 0 100 0 100 -240 0 -240 0 0 370 0
370 -110 0 -110 0 0 -470z"/>
<path d="M360 475 l0 -465 100 0 100 0 1 318 1 317 101 -207 100 -208 89 0 89
0 99 202 98 203 1 -312 1 -313 105 0 105 0 0 465 0 465 -138 0 -138 0 -109
-195 c-59 -107 -111 -192 -115 -190 -4 3 -56 90 -116 195 l-108 190 -133 0
-133 0 0 -465z"/>
</g>
</svg>
