<?xml version="1.0" standalone="no"?>
<!DOCTYPE svg PUBLIC "-//W3C//DTD SVG 20010904//EN"
 "http://www.w3.org/TR/2001/REC-SVG-20010904/DTD/svg10.dtd">
<svg version="1.0" xmlns="http://www.w3.org/2000/svg"
 width="300.000000pt" height="300.000000pt" viewBox="0 0 300.000000 300.000000"
 preserveAspectRatio="xMidYMid meet">
<metadata>
Created by potrace 1.15, written by Peter Selinger 2001-2017
</metadata>
<g transform="translate(0.000000,300.000000) scale(0.100000,-0.100000)"
fill="#000000" stroke="none">
<path d="M202 2158 c-9 -9 -12 -156 -12 -598 0 -556 1 -588 18 -603 17 -16 94
-17 983 -11 530 3 970 7 977 10 17 5 18 1184 0 1202 -17 17 -1949 17 -1966 0z
m1922 -64 c3 -9 6 -253 6 -543 0 -397 -3 -530 -12 -539 -9 -9 -228 -12 -924
-12 -502 0 -919 3 -928 6 -14 6 -16 63 -16 548 0 299 3 546 7 549 3 4 424 7
934 7 836 0 927 -2 933 -16z"/>
</g>
</svg>
